<svg width="16" height="16" viewBox="0 0 16 16" fill="none" xmlns="http://www.w3.org/2000/svg">
<g clip-path="url(#clip0_203_676)">
<path d="M1.33325 7.33337V13.3334C1.33325 13.8638 1.54397 14.3725 1.91904 14.7476C2.29411 15.1227 2.80282 15.3334 3.33325 15.3334H12.6666C13.197 15.3334 13.7057 15.1227 14.0808 14.7476C14.4559 14.3725 14.6666 13.8638 14.6666 13.3334V7.33337H1.33325Z" fill="white"/>
<path d="M15.3333 4.66671H13.0533L10.5787 0.333374L9.42133 1.00004L11.518 4.66671H4.482L6.57867 1.00004L5.42133 0.333374L2.94667 4.66671H0.666667C0.489856 4.66671 0.320286 4.73695 0.195262 4.86197C0.0702379 4.98699 0 5.15656 0 5.33337C0 5.51018 0.0702379 5.67975 0.195262 5.80478C0.320286 5.9298 0.489856 6.00004 0.666667 6.00004H15.3333C15.5101 6.00004 15.6797 5.9298 15.8047 5.80478C15.9298 5.67975 16 5.51018 16 5.33337C16 5.15656 15.9298 4.98699 15.8047 4.86197C15.6797 4.73695 15.5101 4.66671 15.3333 4.66671Z" fill="white"/>
</g>
<defs>
<clipPath id="clip0_203_676">
<rect width="16" height="16" fill="white"/>
</clipPath>
</defs>
</svg>
