<svg width="36" height="36" viewBox="0 0 36 36" fill="none" xmlns="http://www.w3.org/2000/svg">
<path fill-rule="evenodd" clip-rule="evenodd" d="M9.0001 24.4C12.5347 24.4 15.4001 21.5346 15.4001 18C15.4001 14.4654 12.5347 11.6 9.0001 11.6C5.46547 11.6 2.6001 14.4654 2.6001 18C2.6001 21.5346 5.46547 24.4 9.0001 24.4ZM7.98903 15.5831C8.36644 14.9541 8.75704 14.8 9.0001 14.8C9.24314 14.8 9.63378 14.9541 10.0111 15.5831C10.2385 15.962 10.7299 16.0849 11.1087 15.8575C11.4876 15.6302 11.6105 15.1388 11.3831 14.76C10.8233 13.8269 9.98546 13.2 9.0001 13.2C8.01473 13.2 7.1769 13.8269 6.61705 14.76C6.38915 15.1398 6.21147 15.5595 6.08087 16H5.8001C5.35827 16 5.0001 16.3582 5.0001 16.8C5.0001 17.2418 5.35827 17.6 5.8001 17.6H5.81079C5.80364 17.7336 5.8001 17.8671 5.8001 18C5.8001 18.1329 5.80364 18.2664 5.81079 18.4H5.8001C5.35827 18.4 5.0001 18.7581 5.0001 19.2C5.0001 19.6418 5.35827 20 5.8001 20H6.08087C6.21147 20.4405 6.38915 20.8602 6.61705 21.24C7.1769 22.1731 8.01473 22.8 9.0001 22.8C9.98546 22.8 10.8233 22.1731 11.3831 21.24C11.6105 20.8611 11.4876 20.3697 11.1087 20.1424C10.7299 19.9151 10.2385 20.038 10.0111 20.4168C9.63378 21.0458 9.24314 21.2 9.0001 21.2C8.75704 21.2 8.36644 21.0458 7.98903 20.4168C7.91151 20.2876 7.84098 20.1481 7.77783 20H9.0001C9.44194 20 9.8001 19.6418 9.8001 19.2C9.8001 18.7581 9.44194 18.4 9.0001 18.4H7.41366C7.40466 18.268 7.4001 18.1345 7.4001 18C7.4001 17.8655 7.40466 17.732 7.41366 17.6H9.0001C9.44194 17.6 9.8001 17.2418 9.8001 16.8C9.8001 16.3582 9.44194 16 9.0001 16H7.77783C7.84098 15.8519 7.91151 15.7124 7.98903 15.5831Z" fill="white"/>
<path fill-rule="evenodd" clip-rule="evenodd" d="M23.2343 15.8343C23.5467 15.5219 24.0533 15.5219 24.3657 15.8343L27 18.4686L29.6343 15.8343C29.9467 15.5219 30.4533 15.5219 30.7657 15.8343C31.0781 16.1467 31.0781 16.6532 30.7657 16.9657L27.5657 20.1657C27.2533 20.4781 26.7467 20.4781 26.4343 20.1657L23.2343 16.9657C22.9219 16.6532 22.9219 16.1467 23.2343 15.8343Z" fill="white"/>
</svg>
