<svg width="16" height="16" viewBox="0 0 16 16" fill="none" xmlns="http://www.w3.org/2000/svg">
<path d="M11.0554 1.33337C10.4855 1.33654 9.92199 1.45292 9.39748 1.67574C8.87298 1.89857 8.39798 2.2234 8.00008 2.63137C7.4094 2.02073 6.64987 1.60034 5.81878 1.42405C4.9877 1.24776 4.1229 1.32359 3.33518 1.64182C2.54746 1.96006 1.87268 2.50622 1.39728 3.21034C0.921879 3.91445 0.667507 4.74446 0.666748 5.59403C0.666748 9.49003 7.32941 14.9647 7.61341 15.194C7.72273 15.2828 7.85926 15.3313 8.00008 15.3313C8.1409 15.3313 8.27744 15.2828 8.38675 15.194C8.67075 14.9647 15.3334 9.49003 15.3334 5.59403C15.3297 4.46217 14.8772 3.37798 14.0753 2.57926C13.2733 1.78053 12.1873 1.33248 11.0554 1.33337Z" fill="white"/>
</svg>
